<svg viewBox="0 0 200 200" xmlns="http://www.w3.org/2000/svg">
  <path d="M100 168.28c5.27 6.93 13.61 11.41 23.01 11.41 30.5 0 28.84-64.75 28.84-73.92 0-15.87-12.91-28.73-28.84-28.73-9.4 0-17.74 4.48-23.01 11.41-5.27-6.93-13.61-11.41-23.01-11.41-15.93 0-28.84 12.86-28.84 28.73 0 9.17-1.65 73.92 28.84 73.92 9.4 0 17.74-4.48 23.01-11.41z" fill="#E8DCC0"/>
  <path d="M100.67 21.29c.57 28.86 24.37 52.09 53.66 52.09-.57-28.86-24.37-52.09-53.66-52.09z" fill="#E8DCC0"/>
  <path d="M45.67 73.38c.57-28.86 24.37-52.09 53.66-52.09-.57 28.87-24.37 52.09-53.66 52.09z" fill="#E8DCC0"/>
</svg>
